<?xml version="1.0" encoding="UTF-8"?>
<svg version="1.1" xmlns="http://www.w3.org/2000/svg" width="374" height="374">
<path d="M0 0 C1.17614054 -0.00538554 2.35228108 -0.01077108 3.56406224 -0.01631981 C6.80206498 -0.02808689 10.03973407 -0.0265586 13.27773929 -0.019153 C16.78023542 -0.01440086 20.28267768 -0.02694918 23.78515625 -0.03717041 C30.63656807 -0.05432404 37.48788804 -0.05520556 44.33931576 -0.04995751 C49.91106619 -0.04590805 55.48278958 -0.04736856 61.05453873 -0.05270576 C62.24626542 -0.0538284 62.24626542 -0.0538284 63.4620674 -0.05497371 C65.07631929 -0.05650527 66.69057118 -0.05804361 68.30482306 -0.05958868 C83.42657188 -0.07330136 98.54826891 -0.06788477 113.67001654 -0.05640347 C127.48675911 -0.04647304 141.30336772 -0.05941062 155.12008964 -0.08333766 C169.32699399 -0.10775393 183.53383602 -0.11733028 197.74076092 -0.11068493 C205.70890583 -0.10719824 213.67694777 -0.10938833 221.64507675 -0.12693596 C228.42831941 -0.14168963 235.21138658 -0.14225225 241.99462591 -0.12486505 C245.45139678 -0.11637844 248.90785459 -0.11414749 252.36460876 -0.1295166 C256.12178344 -0.1427482 259.87811495 -0.13115805 263.63525391 -0.11352539 C264.71407172 -0.1231304 265.79288954 -0.1327354 266.9043988 -0.14263147 C280.7633545 -0.00940587 293.94522574 5.60162004 304.1946106 14.95018005 C314.8743638 26.43258694 319.41781562 40.02764043 319.33229065 55.44306946 C319.34036896 57.20728027 319.34036896 57.20728027 319.34861046 59.0071317 C319.36037754 62.24513444 319.35884925 65.48280353 319.35144365 68.72080874 C319.34669151 72.22330488 319.35923983 75.72574714 319.36946106 79.22822571 C319.38661469 86.07963753 319.38749621 92.9309575 319.38224816 99.78238522 C319.37819869 105.35413565 319.37965921 110.92585904 319.38499641 116.49760818 C319.38574484 117.29209265 319.38649326 118.08657711 319.38726436 118.90513686 C319.38879592 120.51938875 319.39033426 122.13364064 319.39187933 123.74789251 C319.40559201 138.86964134 319.40017542 153.99133837 319.38869411 169.113086 C319.37876369 182.92982857 319.39170127 196.74643718 319.41562831 210.56315909 C319.44004458 224.77006345 319.44962093 238.97690548 319.44297558 253.18383038 C319.43948889 261.15197529 319.44167898 269.12001723 319.45922661 277.08814621 C319.47398028 283.87138887 319.4745429 290.65445604 319.4571557 297.43769537 C319.44866908 300.89446624 319.44643814 304.35092404 319.46180725 307.80767822 C319.47503885 311.5648529 319.4634487 315.32118441 319.44581604 319.07832336 C319.45542105 320.15714118 319.46502605 321.23595899 319.47492212 322.34746826 C319.34169652 336.20642396 313.73067061 349.3882952 304.3821106 359.63768005 C292.8997037 370.31743326 279.30465022 374.86088508 263.88922119 374.77536011 C262.12501038 374.78343841 262.12501038 374.78343841 260.32515895 374.79167992 C257.08715621 374.803447 253.84948712 374.8019187 250.6114819 374.79451311 C247.10898577 374.78976097 243.60654351 374.80230929 240.10406494 374.81253052 C233.25265312 374.82968415 226.40133315 374.83056567 219.54990543 374.82531761 C213.978155 374.82126815 208.40643161 374.82272867 202.83468246 374.82806587 C202.040198 374.82881429 201.24571354 374.82956272 200.42715379 374.83033382 C198.8129019 374.83186537 197.19865001 374.83340372 195.58439814 374.83494879 C180.46264931 374.84866147 165.34095228 374.84324488 150.21920465 374.83176357 C136.40246208 374.82183315 122.58585347 374.83477073 108.76913156 374.85869776 C94.5622272 374.88311403 80.35538517 374.89269039 66.14846027 374.88604504 C58.18031536 374.88255834 50.21227342 374.88474844 42.24414444 374.90229607 C35.46090178 374.91704974 28.67783461 374.91761236 21.89459528 374.90022516 C18.43782441 374.89173854 14.98136661 374.8895076 11.52461243 374.90487671 C7.76743775 374.91810831 4.01110624 374.90651816 0.25396729 374.8888855 C-0.82485053 374.8984905 -1.90366834 374.90809551 -3.01517761 374.91799158 C-16.87413331 374.78476598 -30.05600455 369.17374007 -40.3053894 359.82518005 C-50.98514261 348.34277316 -55.52859443 334.74771968 -55.44306946 319.33229065 C-55.448455 318.15615011 -55.45384053 316.98000957 -55.45938927 315.76822841 C-55.47115635 312.53022567 -55.46962806 309.29255658 -55.46222246 306.05455136 C-55.45747032 302.55205523 -55.47001864 299.04961297 -55.48023987 295.5471344 C-55.4973935 288.69572258 -55.49827502 281.8444026 -55.49302696 274.99297489 C-55.4889775 269.42122446 -55.49043802 263.84950107 -55.49577522 258.27775192 C-55.49652364 257.48326746 -55.49727207 256.688783 -55.49804317 255.87022325 C-55.49957472 254.25597136 -55.50111307 252.64171947 -55.50265814 251.02746759 C-55.51637082 235.90571877 -55.51095423 220.78402174 -55.49947292 205.66227411 C-55.4895425 191.84553154 -55.50248008 178.02892292 -55.52640712 164.21220101 C-55.55082338 150.00529666 -55.56039974 135.79845463 -55.55375439 121.59152973 C-55.55026769 113.62338482 -55.55245779 105.65534288 -55.57000542 97.6872139 C-55.58475909 90.90397124 -55.58532171 84.12090407 -55.56793451 77.33766474 C-55.55944789 73.88089387 -55.55721695 70.42443606 -55.57258606 66.96768188 C-55.58581766 63.21050721 -55.57422751 59.4541757 -55.55659485 55.69703674 C-55.56619986 54.61821893 -55.57580486 53.53940111 -55.58570093 52.42789185 C-55.45247533 38.56893615 -49.84144942 25.38706491 -40.4928894 15.13768005 C-29.01048251 4.45792685 -15.41542903 -0.08552497 0 0 Z " fill="#003370" transform="translate(55.055389404296875,-0.3876800537109375)"/>
<path d="M0 0 C6.96021528 5.58802446 13.20058311 12.0876107 19.45405197 18.4400177 C20.93968506 19.94812145 22.42962993 21.45184638 23.92080688 22.95446777 C28.15167833 27.21855029 32.37785282 31.48721506 36.59423828 35.765625 C39.19290147 38.40190488 41.79880355 41.03083958 44.40950394 43.65519714 C45.39706073 44.65079223 46.38183642 45.64915418 47.36371994 46.65034485 C48.72953307 48.04260396 50.10551266 49.42486773 51.48193359 50.80664062 C52.26007416 51.59445923 53.03821472 52.38227783 53.8399353 53.19396973 C56.57476116 55.57548916 56.57476116 55.57548916 60 56 C61.98022727 54.47599543 63.54802959 53.03297114 65.25244141 51.23583984 C65.7636554 50.71732452 66.27486938 50.1988092 66.80157471 49.6645813 C67.91258839 48.53451453 69.01778679 47.39870826 70.11784744 46.25797653 C71.86505656 44.44695056 73.62741716 42.6520088 75.3946228 40.86050415 C79.78576811 36.40246974 84.14979023 31.91818368 88.51416016 27.43395996 C92.19418421 23.65476643 95.88460588 19.88631564 99.58915329 16.13115311 C101.31559757 14.3725719 103.0261156 12.5994886 104.73648071 10.82528687 C111.54536754 3.85652306 118.00594925 -2.04356574 127.94140625 -3.62890625 C139.13543253 -3.42362206 146.06171344 -1.46569519 154.27734375 6.2109375 C160.13592205 12.29535668 162.05605964 18.50941939 162.375 26.8125 C162.15735941 37.06721258 158.09564027 43.87485603 151 51 C150.32155029 51.68296143 149.64310059 52.36592285 148.9440918 53.06958008 C145.82795276 56.18564827 142.66812194 59.25659634 139.51300049 62.33309937 C136.00297868 65.76295608 132.50864721 69.20860959 129.01513672 72.65527344 C127.16985444 74.47025177 125.31924199 76.27982661 123.46337891 78.08398438 C120.7790437 80.69556435 118.11454065 83.32602972 115.453125 85.9609375 C114.62089417 86.76220062 113.78866333 87.56346375 112.93121338 88.38900757 C109.52074158 91.79745793 107.28712882 94.11382129 105.78417969 98.75244141 C106.16667032 104.50797357 109.55870608 107.80184763 113.55981445 111.69165039 C114.94188835 113.04444847 114.94188835 113.04444847 116.35188293 114.42457581 C116.84230387 114.90027071 117.3327248 115.37596561 117.83800697 115.86607552 C119.38782567 117.37149756 120.92928561 118.8850235 122.46855164 120.40122986 C126.84390769 124.7097687 131.22698147 129.01017462 135.6315918 133.28881836 C138.33266091 135.9138045 141.01822222 138.55386715 143.69499779 141.20361137 C144.70874557 142.20143739 145.72797946 143.19372607 146.75310707 144.17985725 C154.33570143 151.47914157 160.72702631 159.12450366 162.69140625 169.734375 C162.23843652 180.33112145 159.87447307 188.67744982 151.8125 196.125 C143.42797426 202.84677169 135.64861233 203.98528086 125 203 C113.60643674 201.20000849 104.7371941 188.87492648 97.046875 181.109375 C95.66574388 179.72245775 94.28460989 178.33554335 92.90330887 176.94879532 C90.5166866 174.55136808 88.13344887 172.15058148 85.75 169.75 C81.97703079 165.95005607 78.20039982 162.15379694 74.421875 158.359375 C73.56551453 157.49471619 72.70915405 156.63005737 71.82684326 155.73919678 C67.70321015 151.5987086 63.57727202 147.63549228 59 144 C55.1742099 145.57384216 52.80491481 147.98396832 49.93115234 150.92114258 C49.4394455 151.42058884 48.94773865 151.9200351 48.44113159 152.43461609 C47.37612327 153.5172445 46.31333987 154.60206516 45.2525444 155.68882179 C43.5666648 157.41425614 41.87325479 159.13195331 40.17739868 160.84757996 C35.35718636 165.72568427 30.54656738 170.61307517 25.75146484 175.51586914 C22.81405225 178.5181549 19.86421394 181.50776218 16.9064827 184.49002647 C15.78793433 185.62273169 14.67405975 186.76007396 13.56522751 187.90229225 C6.40590431 195.27400463 -0.36335205 201.79026478 -10.8359375 203.69921875 C-20.83197868 203.66611928 -28.56522748 201.79538752 -36.19140625 195.06640625 C-41.90130091 188.95121635 -44.7931918 182.23483247 -45.125 173.8359375 C-45.08375 172.69382812 -45.0425 171.55171875 -45 170.375 C-44.979375 169.24835938 -44.95875 168.12171875 -44.9375 166.9609375 C-42.90897651 154.58742607 -30.55306071 145.05587239 -22.0625 136.75 C-20.71592302 135.41494332 -19.37021388 134.07901072 -18.02539062 132.7421875 C-6.68273894 121.50565292 -6.68273894 121.50565292 -0.59277344 116.36669922 C7.69343687 109.40162766 7.69343687 109.40162766 11.34257507 99.66661072 C10.91937611 95.13707546 9.80676971 93.96696642 6.58129883 90.83422852 C5.87645859 90.13508331 5.87645859 90.13508331 5.15737915 89.42181396 C3.60615187 87.89069089 2.03198666 86.38557684 0.45703125 84.87890625 C-0.6313223 83.81125426 -1.71791102 82.74180053 -2.80281067 81.67063904 C-5.66160641 78.85551495 -8.53942456 76.0607305 -11.4230957 73.27111816 C-16.02451973 68.81517987 -20.60036021 64.3331892 -25.16869545 59.84336662 C-26.75924572 58.2869065 -28.36015198 56.74174674 -29.96269226 55.19764709 C-38.79243502 46.6171298 -44.75639102 39.01995126 -45.5 26.3125 C-45.32679737 18.17197657 -42.20497535 11.66535855 -36.87890625 5.57421875 C-26.92499148 -3.86216145 -12.51412682 -6.74236456 0 0 Z " fill="#09E23A" transform="translate(129,87)"/>
<path d="M0 0 C4.78169427 4.00026528 9.32845536 8.16405249 13.75805664 12.54931641 C14.39317673 13.17465271 15.02829681 13.79998901 15.68266296 14.4442749 C17.7616181 16.49356973 19.83652384 18.5468824 21.91015625 20.6015625 C22.62439695 21.30923138 23.33863766 22.01690025 24.07452202 22.74601364 C27.85206227 26.49109398 31.62560928 30.24015416 35.39672852 33.99169922 C38.50095558 37.07811255 41.61346996 40.15578321 44.73364258 43.22607422 C48.52235365 46.95431619 52.29587044 50.69733044 56.05929375 54.45109177 C57.48656481 55.86985753 58.91892546 57.28352391 60.35664558 58.69169998 C77.41022596 75.4134238 77.41022596 75.4134238 79.69140625 87.734375 C79.23843652 98.33112145 76.87447307 106.67744982 68.8125 114.125 C60.42797426 120.84677169 52.64861233 121.98528086 42 121 C30.60643674 119.20000849 21.7371941 106.87492648 14.046875 99.109375 C12.66574388 97.72245775 11.28460989 96.33554335 9.90330887 94.94879532 C7.5166866 92.55136808 5.13344887 90.15058148 2.75 87.75 C-1.02296921 83.95005607 -4.79960018 80.15379694 -8.578125 76.359375 C-9.43448547 75.49471619 -10.29084595 74.63005737 -11.17315674 73.73919678 C-15.29678985 69.5987086 -19.42272798 65.63549228 -24 62 C-22.49046126 58.41643328 -20.40391098 56.22283308 -17.60546875 53.55078125 C-16.73212891 52.70193359 -15.85878906 51.85308594 -14.95898438 50.97851562 C-13.12716798 49.21640894 -11.29129201 47.45851166 -9.45117188 45.70507812 C-1.25745709 37.7160557 4.86900364 29.45599597 5.375 17.6875 C5.28980115 12.01015828 3.5746429 7.96316703 1 3 C0.67 2.01 0.34 1.02 0 0 Z " fill="#0CB40A" transform="translate(212,169)"/>
<path d="M0 0 C7.84383405 4.18831139 13.99376688 10.26566719 17.3125 18.5625 C19.09962784 27.79599383 18.83351605 36.16494878 14.0625 44.4375 C11.92380135 47.32119557 9.59359213 49.89588358 7.0625 52.4375 C6.38405029 53.12046143 5.70560059 53.80342285 5.0065918 54.50708008 C1.89045276 57.62314827 -1.26937806 60.69409634 -4.42449951 63.77059937 C-7.93452132 67.20045608 -11.42885279 70.64610959 -14.92236328 74.09277344 C-16.76764556 75.90775177 -18.61825801 77.71732661 -20.47412109 79.52148438 C-23.1584563 82.13306435 -25.82295935 84.76352972 -28.484375 87.3984375 C-29.31660583 88.19970062 -30.14883667 89.00096375 -31.00628662 89.82650757 C-35.5133684 94.33091794 -37.86534945 96.97796417 -37.9375 103.4375 C-38.2675 104.0975 -38.5975 104.7575 -38.9375 105.4375 C-54.60416667 89.77083333 -70.27083333 74.10416667 -85.9375 58.4375 C-85.48680145 58.05989532 -85.03610291 57.68229065 -84.57174683 57.29324341 C-78.92394323 52.46573393 -73.70019716 47.26730533 -68.50790787 41.96081161 C-66.43934386 39.84946036 -64.36081027 37.74803362 -62.28295708 35.64583015 C-58.43378006 31.75129446 -54.58870909 27.85290617 -50.76025391 23.93798828 C-48.07770472 21.19563097 -45.3827422 18.46600865 -42.67950058 15.74405289 C-41.66156876 14.71448699 -40.64815241 13.68043369 -39.63968277 12.64159775 C-28.62573892 1.30430251 -16.22256666 -6.45534659 0 0 Z " fill="#04795A" transform="translate(272.9375,85.5625)"/>
<path d="M0 0 C7.17669085 5.31178015 12.26015348 11.01079296 14 20 C14.95110698 30.18837328 13.28753972 38.25634594 6.8125 46.3125 C1.62673284 51.83355383 -4.83843788 55.48969969 -12.41015625 56.23828125 C-21.45508906 56.49137952 -29.1958646 54.57251271 -36.375 48.875 C-41.96828518 43.55735926 -45.58105005 36.18853395 -46.203125 28.484375 C-46.35612089 19.55961466 -44.58658873 13.09647757 -39 6 C-28.55246862 -4.63002101 -13.34424081 -8.92232572 0 0 Z " fill="#09E13A" transform="translate(277,88)"/>
</svg>
